<?xml version="1.0" encoding="utf-8"?><!DOCTYPE svg PUBLIC "-//W3C//DTD SVG 1.1//EN" "http://www.w3.org/Graphics/SVG/1.1/DTD/svg11.dtd"><svg version="1.1" xmlns="http://www.w3.org/2000/svg" xmlns:xlink="http://www.w3.org/1999/xlink" width="32" height="28" viewBox="0 0 32 28" data-code="61978" data-tags="ship"><g fill="#444" transform="scale(0.02734375 0.02734375)"><path d="M1034.857 888.571c14.286-14.286 37.143-14.286 51.429 0l73.143 73.143-51.429 51.429-47.429-47.429-47.429 47.429c-6.857 7.429-16.571 10.857-25.714 10.857s-18.857-3.429-25.714-10.857l-47.429-47.429-47.429 47.429c-14.286 14.286-37.143 14.286-51.429 0l-47.429-47.429-47.429 47.429c-14.286 14.286-37.143 14.286-51.429 0l-47.429-47.429-47.429 47.429c-14.286 14.286-37.143 14.286-51.429 0l-47.429-47.429-47.429 47.429c-14.286 14.286-37.143 14.286-51.429 0l-47.429-47.429-47.429 47.429c-14.286 14.286-37.143 14.286-51.429 0l-47.429-47.429-47.429 47.429c-14.286 14.286-37.143 14.286-51.429 0l-73.143-73.143 51.429-51.429 47.429 47.429 47.429-47.429c14.286-14.286 37.143-14.286 51.429 0l47.429 47.429 47.429-47.429c14.286-14.286 37.143-14.286 51.429 0l47.429 47.429 47.429-47.429c14.286-14.286 37.143-14.286 51.429 0l47.429 47.429 47.429-47.429c14.286-14.286 37.143-14.286 51.429 0l47.429 47.429 47.429-47.429c14.286-14.286 37.143-14.286 51.429 0l47.429 47.429 47.429-47.429c14.286-14.286 37.143-14.286 51.429 0l47.429 47.429zM135.429 866.857c-14.286 14.286-37.143 14.286-51.429 0l-73.143-73.143 51.429-51.429 47.429 46.857 47.429-46.857c14.286-14.286 37.143-14.286 51.429 0l47.429 46.857 36.571-36.571v-167.429l-120-179.429c-13.143-20-4-47.429 18.857-55.429l101.143-33.143v-170.857h73.143v-73.143h146.286v-73.143h146.286v73.143h146.286v73.143h73.143v170.857l101.143 33.143c22.857 8 32 35.429 18.857 55.429l-120 179.429v167.429l10.857-10.286c14.286-14.286 37.143-14.286 51.429 0l47.429 46.857 47.429-46.857c14.286-14.286 37.143-14.286 51.429 0l73.143 73.143-51.429 51.429-47.429-47.429-47.429 47.429c-6.857 7.429-16.571 10.857-25.714 10.857s-18.857-3.429-25.714-10.857l-47.429-47.429-47.429 47.429c-14.286 14.286-37.143 14.286-51.429 0l-47.429-47.429-47.429 47.429c-14.286 14.286-37.143 14.286-51.429 0l-47.429-47.429-47.429 47.429c-14.286 14.286-37.143 14.286-51.429 0l-47.429-47.429-47.429 47.429c-14.286 14.286-37.143 14.286-51.429 0l-47.429-47.429-47.429 47.429c-14.286 14.286-37.143 14.286-51.429 0l-47.429-47.429zM365.714 219.429v73.143l219.429-73.143 219.429 73.143v-73.143h-73.143v-73.143h-292.571v73.143h-73.143z" /></g></svg>