<svg width="14" height="14" viewBox="0 0 14 14" fill="none" xmlns="http://www.w3.org/2000/svg">
    <g clip-path="url(#6tdmm6nmma)">
        <path d="M1.576 10.928a.647.647 0 0 0 .842.36.647.647 0 0 0 .362-.837l-.725-1.818 4.3-.948v3.062a.643.643 0 0 0 .648.645.65.65 0 0 0 .648-.645V7.685l4.3.948-.725 1.818a.642.642 0 0 0 .602.883.65.65 0 0 0 .602-.406l1.004-2.52a.641.641 0 0 0-.032-.542.644.644 0 0 0-.428-.33L10.89 7.08V3.223a.643.643 0 0 0-.648-.644H8.946V.645A.643.643 0 0 0 8.298 0h-2.59a.65.65 0 0 0-.648.645v1.934H3.765a.65.65 0 0 0-.648.644V7.08l-2.085.445a.649.649 0 0 0-.46.87l1.004 2.534zm4.78-9.639H7.65v1.29H6.355v-1.29zM4.411 3.87h5.182v2.92l-2.449-.555H6.86l-2.448.555v-2.92zm8.232 8.348a2.84 2.84 0 0 0-.648.29 1.352 1.352 0 0 1-1.36 0 3.003 3.003 0 0 0-2.94 0 1.391 1.391 0 0 1-1.373 0 3.015 3.015 0 0 0-2.94 0 1.352 1.352 0 0 1-1.36 0 2.84 2.84 0 0 0-.648-.29.65.65 0 0 0-.849.464.642.642 0 0 0 .434.8c.13.035.255.09.37.161a2.6 2.6 0 0 0 1.295.355c.473 0 .938-.125 1.347-.361a1.723 1.723 0 0 1 1.658 0 2.698 2.698 0 0 0 2.668 0 1.722 1.722 0 0 1 1.658 0 2.6 2.6 0 0 0 2.656 0c.114-.072.238-.126.369-.162a.648.648 0 0 0 .511-.533.644.644 0 0 0-.013-.26.645.645 0 0 0-.835-.464z" fill="#868998"/>
    </g>
    <defs>
        <clipPath id="6tdmm6nmma">
            <path fill="#fff" d="M0 0h14v14H0z"/>
        </clipPath>
    </defs>
</svg>
