<svg width="14" height="14" viewBox="0 0 14 14" fill="none" xmlns="http://www.w3.org/2000/svg">
    <path fill-rule="evenodd" clip-rule="evenodd" d="M1.209.583a.5.5 0 0 1 .5-.5h10.693a.5.5 0 0 1 .5.5v1.105h.193a.82.82 0 0 1 .574.247.82.82 0 0 1 .247.574V4.54a.5.5 0 0 1-1 0V2.688h-.014v9.498a.5.5 0 0 1-.5.5h-.036v.41a.821.821 0 0 1-.247.574.821.821 0 0 1-.574.247h-1.338a.821.821 0 0 1-.574-.247.821.821 0 0 1-.247-.574v-.41H4.56v.41a.821.821 0 0 1-.247.574.821.821 0 0 1-.574.247H2.4a.821.821 0 0 1-.574-.247.821.821 0 0 1-.247-.574v-.426a.5.5 0 0 1-.371-.483v-9.5h-.125V4.54a.5.5 0 1 1-1 0V2.51a.82.82 0 0 1 .247-.574.82.82 0 0 1 .574-.247h.304V.583zm9.177 12.104v.23h.98v-.23h-.98zm-7.806 0h.98v.23h-.98v-.23zm9.322-11.604v.605H2.209v-.605h9.693zm0 1.605H2.209V6.34h9.693V2.688zm0 4.652H2.209v4.347h9.693V7.34zM3.524 8.997a.035.035 0 1 0 0 .07.035.035 0 0 0 0-.07zm-1.035.035a1.035 1.035 0 1 1 2.07 0 1.035 1.035 0 0 1-2.07 0zm8.06 0a.035.035 0 1 1 .07 0 .035.035 0 0 1-.07 0zm.035-1.035a1.035 1.035 0 1 0 0 2.07 1.035 1.035 0 0 0 0-2.07z" fill="#868998"/>
</svg>
