<svg width="14" height="14" viewBox="0 0 14 14" fill="none" xmlns="http://www.w3.org/2000/svg">
    <path fill-rule="evenodd" clip-rule="evenodd" d="M12.503.005c.363.024.76.135 1.06.437l.014.014c.287.312.395.712.418 1.082.023.373-.036.766-.133 1.13-.188.709-.558 1.44-.941 1.827a.532.532 0 0 1-.054.048l-1.925 1.479 2.202 5.4c.082.2.036.429-.116.582l-.857.864a.538.538 0 0 1-.822-.068L8.21 8.37l-3.05 2.637.456 1.84a.538.538 0 0 1-.14.508l-.483.487a.539.539 0 0 1-.841-.098l-1.487-2.43-2.41-1.5a.538.538 0 0 1-.098-.836l.482-.486a.538.538 0 0 1 .514-.143l1.818.458 2.62-3.081-4.402-3.17a.538.538 0 0 1-.056-.828l.91-.864A.538.538 0 0 1 2.62.756l5.368 2.226 1.567-1.86a.537.537 0 0 1 .03-.032c.383-.386 1.11-.76 1.807-.95a3.46 3.46 0 0 1 1.11-.135zm-2.14 1.83L8.557 3.977a.538.538 0 0 1-.618.15L2.53 1.885l-.185.176 4.347 3.13a.538.538 0 0 1 .096.786L3.574 9.76a.538.538 0 0 1-.542.173L2.11 9.7l1.23.765a.538.538 0 0 1 .176.177l.744 1.217-.226-.915a.538.538 0 0 1 .17-.537l3.75-3.241a.538.538 0 0 1 .792.096l3.111 4.393.156-.156-2.223-5.45a.538.538 0 0 1 .17-.631l2.218-1.704c.205-.222.49-.743.644-1.323.077-.291.112-.564.098-.786-.013-.217-.07-.343-.128-.411-.05-.048-.155-.101-.358-.114-.21-.014-.473.02-.758.098-.576.158-1.098.45-1.313.657z" fill="#868998"/>
</svg>
