<svg width="14" height="15" viewBox="0 0 14 15" fill="none" xmlns="http://www.w3.org/2000/svg">
    <path fill-rule="evenodd" clip-rule="evenodd" d="M2.26 3.728h4.147v2.818H2.26V3.728zm0 4.026v3.02c0 .333.266.603.593.603h8.292c.328 0 .593-.27.593-.604v-3.02H2.26zm9.478-1.208V3.728H7.592v2.818h4.146zM10.12 2.52H3.878c.715-.228 1.713-.402 3.121-.402 1.409 0 2.406.174 3.121.402zm-7.119-.962C3.901 1.188 5.164.91 7 .91c1.835 0 3.098.277 3.998.648a5.52 5.52 0 0 1 1.726 1.115l.2.18v7.92c0 .912-.662 1.667-1.522 1.793L12.296 15H1.702l.896-2.434a1.801 1.801 0 0 1-1.522-1.793v-7.92l.199-.18a5.52 5.52 0 0 1 1.726-1.115zm.855 11.027-.444 1.207h7.175l-.444-1.207H3.856zm1.365-3.02c0 .445-.397.805-.888.805-.49 0-.888-.36-.888-.805 0-.444.397-.805.888-.805.49 0 .888.36.888.805zm4.444.805c.49 0 .889-.36.889-.805 0-.444-.398-.805-.889-.805-.49 0-.888.36-.888.805 0 .445.397.805.888.805z" fill="#868998"/>
</svg>
