<svg width="14" height="14" viewBox="0 0 14 14" fill="none" xmlns="http://www.w3.org/2000/svg">
    <g clip-path="url(#qumt39hgba)">
        <path d="M.932 13.97a.435.435 0 0 1-.432-.43v-.89a.428.428 0 0 1 .334-.43l1.087-.255c.108-.205.617-.86 1.626-2.113l.216-1.409c-.235.127-.51.196-.794.206-.117 0-.235-.01-.343-.04-.049-.01-.107-.02-.166-.029a1.891 1.891 0 0 1-1.362-2.29c0-.01.294-1.496.588-2.68a2.518 2.518 0 0 1 1.166-1.663c.274-.147.578-.225.881-.225.196 0 .402.03.588.098a1.6 1.6 0 0 1 .92.88c.089.206.167.42.207.646a1.74 1.74 0 0 1 .597-.098c.402 0 .794.137 1.107.382L8.71 4.823l1.557-.03V3.132a.43.43 0 1 1 .862 0v1.663c.177.02.324.078.46.166.285.186.451.519.432.861v.166a.955.955 0 0 1-.892.861v4.139L12.834 9.9a.455.455 0 0 1 .225-.059.444.444 0 0 1 .44.44v3.278c.001.244-.195.44-.43.44H.932v-.03zm11.706-.87-.02-2.064-1.498.949v.313a.43.43 0 1 1-.862 0v-.127h-.255c-.901 0-.96-.01-1.088-.128a.456.456 0 0 1-.117-.195c-.284-1.116-.696-2.769-.735-2.896a.977.977 0 0 0-.157-.235l-1.518-.89a.436.436 0 0 1-.206-.44l.353-2.055a.419.419 0 0 1 .431-.362c.088 0 .186.03.255.088l1.185.851c.04.03.098.05.157.05h2.439c.157 0 .157 0 .157-.157a.176.176 0 0 0-.03-.108c-.01-.01-.049-.02-.088-.03H8.543a.43.43 0 0 1-.264-.087L6.643 4.314a.968.968 0 0 0-.578-.205.909.909 0 0 0-.578.205.503.503 0 0 0-.177.255l-.95 5.557a.425.425 0 0 1-.088.205c-.637.783-1.656 2.065-1.773 2.23a.415.415 0 0 1-.274.216l-.853.206v.117h11.266zm-2.36-1.78V6.818H8.591c-.255 0-.48-.068-.676-.215l-.627-.44-.186 1.076 1.293.763c.235.166.402.391.5.655.01.03.01.088 0 .118.059.146.196.685.666 2.534h.715v.01zM3.752 2.582a.976.976 0 0 0-.46.117 1.699 1.699 0 0 0-.745 1.096 61.834 61.834 0 0 0-.588 2.67c-.108.656.274 1.194.833 1.282.059.01.117.02.166.02.49 0 .853-.499 1.078-.87 0-.01.01-.01.01-.02l.42-2.485a1.13 1.13 0 0 1 .197-.46c0-.284-.108-1.135-.598-1.301a.843.843 0 0 0-.313-.05zM3.9 12.787a.416.416 0 0 1-.314-.147.433.433 0 0 1 .03-.616l1.205-1.566c.029-.029.039-.068.039-.107 0-.05.01-.118.039-.167l.304-1.8c.039-.195.205-.313.42-.313.08 0 .158.02.226.059l1.568.93a.459.459 0 0 1 .225.293l.529 2.622c.03.117 0 .244-.078.352a.446.446 0 0 1-.314.176l-3.86.294H3.9v-.01zm1.812-2.407-.03.098c-.019.196-.097.391-.215.548l-.627.812 2.38-.186-.391-1.947-.911-.538-.206 1.213zm1.146-7.122a1.625 1.625 0 0 1-1.616-1.624C5.242.734 5.967 0 6.858 0c.892 0 1.617.734 1.617 1.624 0 .9-.725 1.634-1.617 1.634zm0-2.387a.76.76 0 0 0-.754.753c0 .41.333.753.754.753a.746.746 0 0 0 .745-.753.752.752 0 0 0-.745-.753z" fill="#868998"/>
    </g>
    <defs>
        <clipPath id="qumt39hgba">
            <path fill="#fff" d="M0 0h14v14H0z"/>
        </clipPath>
    </defs>
</svg>
