<svg width="24" height="21" viewBox="0 0 24 21" fill="none" xmlns="http://www.w3.org/2000/svg">
<path d="M21.5377 3.85767H16.6854V2.67019C16.6854 1.19789 15.4875 0 14.0152 0H9.9847C8.51241 0 7.31452 1.19784 7.31452 2.67019V3.85767H2.46225C1.10456 3.85767 0 4.96219 0 6.31992V18.4157C0 19.7734 1.10456 20.8779 2.46225 20.8779H21.5377C22.8954 20.8779 24 19.7734 24 18.4157V6.31992C24 4.96219 22.8954 3.85767 21.5377 3.85767ZM8.74884 2.67019C8.74884 1.98872 9.30328 1.43428 9.98475 1.43428H14.0153C14.6967 1.43428 15.2512 1.98872 15.2512 2.67019V3.85767H8.74884V2.67019ZM22.5657 18.4157C22.5657 18.9825 22.1046 19.4437 21.5377 19.4437H2.46225C1.89544 19.4437 1.43428 18.9825 1.43428 18.4157V6.31992C1.43428 5.75311 1.89544 5.29195 2.46225 5.29195H21.5377C22.1046 5.29195 22.5657 5.75311 22.5657 6.31992V18.4157V18.4157Z" fill="#26BED6"/>
</svg>
