<svg width="24" height="24" viewBox="0 0 24 24" fill="none" xmlns="http://www.w3.org/2000/svg">
    <g clip-path="url(#h11n37dxya)">
        <path d="M22 20.667c0 1.467-1.2 2.667-2.667 2.667H4.667A2.675 2.675 0 0 1 2 20.667V9.334c0-1.467 1.2-2.667 2.667-2.667h14.666C20.8 6.667 22 7.867 22 9.334v11.333z" fill="#F2C94C"/>
        <path d="M24 7.334C24 8.8 22.8 10 21.333 10H2.667A2.674 2.674 0 0 1 0 7.334c0-1.467 1.2-2.667 2.667-2.667h18.666C22.8 4.667 24 5.867 24 7.334z" fill="#F2C94C"/>
        <path d="M2 10h20v1.333H2V10z" fill="#FEEEC7"/>
        <path d="M12.667 2h-1.333a2 2 0 0 0-2 2v19.333h5.333V4a2 2 0 0 0-2-2z" fill="#DA2F47"/>
        <path d="M10.667 4.667c.733 0 .842-.344.24-.765L6.427.765a1.197 1.197 0 0 0-1.755.392L3.328 3.51c-.364.637-.061 1.158.672 1.158h6.667zm2.666 0c-.733 0-.842-.344-.24-.765L17.575.765c.6-.421 1.39-.244 1.754.392l1.344 2.352c.363.637.06 1.158-.673 1.158h-6.667z" fill="#DA2F47"/>
    </g>
    <defs>
        <clipPath id="h11n37dxya">
            <path fill="#fff" d="M0 0h24v24H0z"/>
        </clipPath>
    </defs>
</svg>
