<svg width="14" height="14" viewBox="0 0 14 14" fill="none" xmlns="http://www.w3.org/2000/svg">
    <path fill-rule="evenodd" clip-rule="evenodd" d="M2.1 2.45a1.4 1.4 0 1 1 2.8 0 1.4 1.4 0 0 1-2.8 0zm4.305 4.2H13.3c.385 0 .7.315.7.7v4.9c0 .77-.63 1.4-1.4 1.4H1.4c-.77 0-1.4-.63-1.4-1.4v-4.9c0-.385.315-.7.7-.7h1.4v-.525c0-.868.707-1.575 1.575-1.575h.021c.238 0 .469.063.672.161.182.084.35.203.483.35l.98 1.085c.161.182.357.35.574.504zM3.5 11.55c0 .385-.315.7-.7.7a.702.702 0 0 1-.7-.7v-2.8c0-.385.315-.7.7-.7.385 0 .7.315.7.7v2.8zm2.1.7c.385 0 .7-.315.7-.7v-2.8c0-.385-.315-.7-.7-.7-.385 0-.7.315-.7.7v2.8c0 .385.315.7.7.7zm3.5-.7c0 .385-.315.7-.7.7a.702.702 0 0 1-.7-.7v-2.8c0-.385.315-.7.7-.7.385 0 .7.315.7.7v2.8zm2.1.7c.385 0 .7-.315.7-.7v-2.8c0-.385-.315-.7-.7-.7-.385 0-.7.315-.7.7v2.8c0 .385.315.7.7.7z" fill="#38383D"/>
</svg>
