<svg width="14" height="14" viewBox="0 0 14 14" fill="none" xmlns="http://www.w3.org/2000/svg">
    <path d="M9.217 6.61H9.21c-.158 0-.285-.1-.285-.259 0-.085.032-.836 1.14-1.574.573-.382.693-1.014.562-1.447-.122-.405-.453-.634-.905-.634-.689 0-.88.373-.931.593-.066.277.018.459.104.532.126.109.311.085.418.02.076-.048.117-.13.117-.236a.292.292 0 0 1 .583 0c0 .31-.143.577-.394.732-.28.174-.712.156-.994-.001-.344-.193-.52-.678-.402-1.18.154-.65.714-1.04 1.499-1.04.717 0 1.264.394 1.463 1.052.235.773-.094 1.64-.797 2.109-.845.563-.879 1.059-.88 1.08-.006.157-.135.254-.291.254zm-.662.779H2.332s-.777 0-.777.777v.39c0 .777.777.777.777.777h6.223V7.39zm1.944 0H9.332v1.944H10.5s.778 0 .778-.778v-.389c0-.777-.778-.777-.778-.777z" fill="#38383D"/>
    <path d="M7 0a7 7 0 1 0 0 14A7 7 0 0 0 7 0zm6.222 7a6.194 6.194 0 0 1-1.495 4.04L2.96 2.273A6.194 6.194 0 0 1 7 .778 6.222 6.222 0 0 1 13.222 7zM.778 7c0-1.543.565-2.952 1.495-4.04l8.766 8.767A6.191 6.191 0 0 1 7 13.222 6.222 6.222 0 0 1 .778 7z" fill="#38383D"/>
</svg>
